<mxfile host="app.diagrams.net" agent="Mozilla/5.0 (Windows NT 10.0; Win64; x64) AppleWebKit/537.36 (KHTML, like Gecko) Chrome/136.0.0.0 Safari/537.36" version="27.0.6">
  <diagram name="Página-1" id="QtWDjPK8auF5hqekAZkT">
    <mxGraphModel grid="1" page="1" gridSize="10" guides="1" tooltips="1" connect="1" arrows="1" fold="1" pageScale="1" pageWidth="827" pageHeight="1169" math="0" shadow="0">
      <root>
        <mxCell id="0" />
        <mxCell id="1" parent="0" />
        <mxCell id="8QNQstnkroPt18YjfIPx-2" value="Turno" style="swimlane;whiteSpace=wrap;html=1;" vertex="1" parent="1">
          <mxGeometry x="540" y="400" width="260" height="200" as="geometry" />
        </mxCell>
        <mxCell id="8QNQstnkroPt18YjfIPx-5" value="&lt;ul&gt;&lt;li&gt;GetListaTurnos(id_paciente)&lt;/li&gt;&lt;li&gt;GetTurnosDisponibles(dd/mm/yyy, hora)&lt;/li&gt;&lt;/ul&gt;&lt;div&gt;&lt;br&gt;&lt;/div&gt;&lt;div&gt;borrarTurno()&lt;/div&gt;&lt;div&gt;modificarTurno()&lt;/div&gt;&lt;div&gt;crearTurno()&lt;/div&gt;" style="text;html=1;align=center;verticalAlign=middle;resizable=0;points=[];autosize=1;strokeColor=none;fillColor=none;" vertex="1" parent="8QNQstnkroPt18YjfIPx-2">
          <mxGeometry x="-20" y="35" width="280" height="120" as="geometry" />
        </mxCell>
        <mxCell id="8QNQstnkroPt18YjfIPx-3" value="Clinica" style="swimlane;whiteSpace=wrap;html=1;" vertex="1" parent="1">
          <mxGeometry x="370" y="160" width="200" height="200" as="geometry" />
        </mxCell>
        <mxCell id="UWpxYpiTAWlEex15t5Mm-3" value="crearPaciente([Paciente])&lt;div&gt;modificarPaciente()&lt;/div&gt;&lt;div&gt;borrarPaciente()&lt;/div&gt;&lt;div&gt;asignarTurno(_idPaciente)&lt;/div&gt;&lt;div&gt;modificarTurno(_idPaciente)&lt;/div&gt;&lt;div&gt;cancelarTurno(_idPaciente)&lt;/div&gt;" style="text;html=1;align=center;verticalAlign=middle;whiteSpace=wrap;rounded=0;" vertex="1" parent="8QNQstnkroPt18YjfIPx-3">
          <mxGeometry x="46" y="70" width="60" height="30" as="geometry" />
        </mxCell>
        <mxCell id="8QNQstnkroPt18YjfIPx-4" value="Pacientes" style="swimlane;whiteSpace=wrap;html=1;" vertex="1" parent="1">
          <mxGeometry x="130" y="400" width="200" height="200" as="geometry" />
        </mxCell>
        <mxCell id="8QNQstnkroPt18YjfIPx-7" value="&lt;ul&gt;&lt;li&gt;_GetListaPacientes[Pacientes]&lt;/li&gt;&lt;/ul&gt;&lt;div&gt;&lt;br&gt;&lt;/div&gt;&lt;div&gt;registrarse()&lt;/div&gt;&lt;div&gt;logIn(mail, contraseña)&lt;/div&gt;&lt;div&gt;sacarTurno(dd/mm/yyyy, hora)&lt;/div&gt;&lt;div&gt;modificarTurno(dd/mm/yyyy, hora&lt;span style=&quot;background-color: transparent; color: light-dark(rgb(0, 0, 0), rgb(255, 255, 255));&quot;&gt;)&lt;/span&gt;&lt;/div&gt;&lt;div&gt;&lt;span style=&quot;background-color: transparent; color: light-dark(rgb(0, 0, 0), rgb(255, 255, 255));&quot;&gt;cancelarTurno()&lt;/span&gt;&lt;/div&gt;" style="text;html=1;align=center;verticalAlign=middle;resizable=0;points=[];autosize=1;strokeColor=none;fillColor=none;" vertex="1" parent="8QNQstnkroPt18YjfIPx-4">
          <mxGeometry x="-30" y="25" width="230" height="140" as="geometry" />
        </mxCell>
        <mxCell id="UWpxYpiTAWlEex15t5Mm-1" value="" style="endArrow=classic;html=1;rounded=0;exitX=0;exitY=1;exitDx=0;exitDy=0;entryX=0.295;entryY=0.012;entryDx=0;entryDy=0;entryPerimeter=0;" edge="1" parent="1" source="8QNQstnkroPt18YjfIPx-3" target="8QNQstnkroPt18YjfIPx-4">
          <mxGeometry width="50" height="50" relative="1" as="geometry">
            <mxPoint x="440" y="350" as="sourcePoint" />
            <mxPoint x="490" y="300" as="targetPoint" />
          </mxGeometry>
        </mxCell>
        <mxCell id="UWpxYpiTAWlEex15t5Mm-2" value="" style="endArrow=classic;html=1;rounded=0;entryX=0.345;entryY=0.018;entryDx=0;entryDy=0;entryPerimeter=0;exitX=1;exitY=1;exitDx=0;exitDy=0;" edge="1" parent="1" target="8QNQstnkroPt18YjfIPx-2" source="8QNQstnkroPt18YjfIPx-3">
          <mxGeometry width="50" height="50" relative="1" as="geometry">
            <mxPoint x="520" y="260" as="sourcePoint" />
            <mxPoint x="490" y="300" as="targetPoint" />
          </mxGeometry>
        </mxCell>
      </root>
    </mxGraphModel>
  </diagram>
</mxfile>
